# xmcd CD database file
#
# Track frame offsets:
#	150
#	21450
#	42750
#	64051
#
# Disc length: 1130 seconds
#
# Revision: 11
# Processed by: cddbd v1.5PL3 Copyright (c) Steve Scherf et al.
# Submitted via: CDex 1.50Beta3
#
DISCID=2f046804
DTITLE=SUNNY DAY SERVICE - 夜のメロディ
DYEAR=1900
DGENRE=
TTITLE0=夜のメロディ
TTITLE1=恋は桃色
TTITLE2=夜のメロディ (Inst)
TTITLE3=恋は桃色 (Inst)
EXTD=
EXTT0=
EXTT1=
EXTT2=
EXTT3=
PLAYORDER=
